<svg width="634" height="155" viewBox="0 0 634 155" fill="none" xmlns="http://www.w3.org/2000/svg">
<g clip-path="url(#clip0_19_2)">
<path d="M136.86 119.21C133.927 119.21 130.847 118.99 127.62 118.55C124.467 118.183 121.46 117.597 118.6 116.79C115.74 115.983 113.173 115.03 110.9 113.93C108.92 112.977 107.527 111.73 106.72 110.19C105.913 108.577 105.62 106.89 105.84 105.13C106.06 103.37 106.683 101.83 107.71 100.51C108.737 99.1167 110.093 98.2 111.78 97.76C113.467 97.2467 115.373 97.4667 117.5 98.42C120.287 99.74 123.44 100.767 126.96 101.5C130.48 102.233 133.78 102.6 136.86 102.6C141.7 102.6 145.073 101.977 146.98 100.73C148.96 99.41 149.95 97.7967 149.95 95.89C149.95 94.2033 149.253 92.8467 147.86 91.82C146.54 90.7933 144.157 89.9133 140.71 89.18L127.84 86.43C120.8 84.9633 115.557 82.3967 112.11 78.73C108.663 75.0633 106.94 70.3333 106.94 64.54C106.94 60.7267 107.71 57.28 109.25 54.2C110.863 51.0467 113.1 48.37 115.96 46.17C118.893 43.97 122.34 42.2833 126.3 41.11C130.333 39.8633 134.807 39.24 139.72 39.24C143.533 39.24 147.383 39.68 151.27 40.56C155.23 41.3667 158.64 42.6133 161.5 44.3C163.187 45.18 164.397 46.39 165.13 47.93C165.863 49.47 166.157 51.0833 166.01 52.77C165.863 54.3833 165.277 55.8133 164.25 57.06C163.297 58.3067 161.977 59.15 160.29 59.59C158.677 59.9567 156.733 59.6633 154.46 58.71C152.333 57.7567 149.913 57.06 147.2 56.62C144.56 56.1067 141.993 55.85 139.5 55.85C136.787 55.85 134.477 56.18 132.57 56.84C130.663 57.4267 129.197 58.3067 128.17 59.48C127.217 60.6533 126.74 62.01 126.74 63.55C126.74 65.09 127.363 66.41 128.61 67.51C129.93 68.5367 132.313 69.4167 135.76 70.15L148.52 72.9C155.633 74.44 160.95 76.97 164.47 80.49C167.99 84.01 169.75 88.5933 169.75 94.24C169.75 98.0533 168.98 101.5 167.44 104.58C165.9 107.66 163.7 110.3 160.84 112.5C157.98 114.627 154.533 116.277 150.5 117.45C146.467 118.623 141.92 119.21 136.86 119.21ZM215.11 119.21C209.464 119.21 204.477 118.513 200.15 117.12C195.824 115.653 192.157 113.49 189.15 110.63C186.217 107.77 183.98 104.213 182.44 99.96C180.974 95.6333 180.24 90.6467 180.24 85V49.69C180.24 46.3167 181.12 43.7867 182.88 42.1C184.64 40.34 187.134 39.46 190.36 39.46C193.66 39.46 196.154 40.34 197.84 42.1C199.6 43.7867 200.48 46.3167 200.48 49.69V85.22C200.48 90.8667 201.727 95.12 204.22 97.98C206.714 100.84 210.344 102.27 215.11 102.27C219.804 102.27 223.397 100.84 225.89 97.98C228.384 95.12 229.63 90.8667 229.63 85.22V49.69C229.63 46.3167 230.474 43.7867 232.16 42.1C233.92 40.34 236.414 39.46 239.64 39.46C242.867 39.46 245.324 40.34 247.01 42.1C248.697 43.7867 249.54 46.3167 249.54 49.69V85C249.54 92.5533 248.22 98.8967 245.58 104.03C243.014 109.09 239.164 112.903 234.03 115.47C228.897 117.963 222.59 119.21 215.11 119.21ZM274.736 118C271.289 118 268.649 117.12 266.816 115.36C265.056 113.527 264.176 110.923 264.176 107.55V50.9C264.176 47.5267 265.056 44.96 266.816 43.2C268.649 41.3667 271.289 40.45 274.736 40.45H301.576C307.149 40.45 311.879 41.2933 315.766 42.98C319.726 44.5933 322.732 46.9033 324.786 49.91C326.839 52.9167 327.866 56.4367 327.866 60.47C327.866 65.0167 326.546 68.9033 323.906 72.13C321.339 75.3567 317.819 77.5567 313.346 78.73V76.97C318.626 77.9233 322.696 80.05 325.556 83.35C328.489 86.65 329.956 90.8667 329.956 96C329.956 102.82 327.499 108.21 322.586 112.17C317.746 116.057 311.109 118 302.676 118H274.736ZM283.536 103.15H299.926C303.666 103.15 306.379 102.453 308.066 101.06C309.826 99.5933 310.706 97.43 310.706 94.57C310.706 91.71 309.826 89.5833 308.066 88.19C306.379 86.7967 303.666 86.1 299.926 86.1H283.536V103.15ZM283.536 71.25H297.946C301.612 71.25 304.289 70.59 305.976 69.27C307.736 67.95 308.616 65.9333 308.616 63.22C308.616 60.5067 307.736 58.5267 305.976 57.28C304.289 55.96 301.612 55.3 297.946 55.3H283.536V71.25ZM353.072 118C349.625 118 346.985 117.12 345.152 115.36C343.392 113.527 342.512 110.923 342.512 107.55V50.9C342.512 47.5267 343.392 44.96 345.152 43.2C346.985 41.3667 349.625 40.45 353.072 40.45H390.362C393.002 40.45 394.982 41.11 396.302 42.43C397.622 43.75 398.282 45.6567 398.282 48.15C398.282 50.7167 397.622 52.6967 396.302 54.09C394.982 55.41 393.002 56.07 390.362 56.07H361.872V70.81H387.942C390.509 70.81 392.452 71.47 393.772 72.79C395.165 74.11 395.862 76.0533 395.862 78.62C395.862 81.1867 395.165 83.13 393.772 84.45C392.452 85.77 390.509 86.43 387.942 86.43H361.872V102.38H390.362C393.002 102.38 394.982 103.077 396.302 104.47C397.622 105.79 398.282 107.697 398.282 110.19C398.282 112.757 397.622 114.7 396.302 116.02C394.982 117.34 393.002 118 390.362 118H353.072ZM409.229 118.99C406.955 118.99 405.049 118.477 403.509 117.45C401.969 116.35 401.015 114.883 400.649 113.05C400.282 111.143 400.612 109.017 401.639 106.67L429.029 47.71C430.349 44.85 431.962 42.76 433.869 41.44C435.849 40.12 438.085 39.46 440.579 39.46C443.072 39.46 445.235 40.12 447.069 41.44C448.975 42.76 450.625 44.85 452.019 47.71L479.409 106.67C480.582 109.017 480.985 111.143 480.619 113.05C480.325 114.957 479.409 116.423 477.869 117.45C476.402 118.477 474.569 118.99 472.369 118.99C469.435 118.99 467.162 118.33 465.549 117.01C464.009 115.69 462.615 113.563 461.369 110.63L455.429 96.66L463.129 102.27H417.809L425.619 96.66L419.679 110.63C418.359 113.563 417.002 115.69 415.609 117.01C414.215 118.33 412.089 118.99 409.229 118.99ZM440.359 61.57L427.599 92.04L424.519 86.76H456.529L453.449 92.04L440.579 61.57H440.359ZM514.048 119.21C511.115 119.21 508.035 118.99 504.808 118.55C501.655 118.183 498.648 117.597 495.788 116.79C492.928 115.983 490.362 115.03 488.088 113.93C486.108 112.977 484.715 111.73 483.908 110.19C483.102 108.577 482.808 106.89 483.028 105.13C483.248 103.37 483.872 101.83 484.898 100.51C485.925 99.1167 487.282 98.2 488.968 97.76C490.655 97.2467 492.562 97.4667 494.688 98.42C497.475 99.74 500.628 100.767 504.148 101.5C507.668 102.233 510.968 102.6 514.048 102.6C518.888 102.6 522.262 101.977 524.168 100.73C526.148 99.41 527.138 97.7967 527.138 95.89C527.138 94.2033 526.442 92.8467 525.048 91.82C523.728 90.7933 521.345 89.9133 517.898 89.18L505.028 86.43C497.988 84.9633 492.745 82.3967 489.298 78.73C485.852 75.0633 484.128 70.3333 484.128 64.54C484.128 60.7267 484.898 57.28 486.438 54.2C488.052 51.0467 490.288 48.37 493.148 46.17C496.082 43.97 499.528 42.2833 503.488 41.11C507.522 39.8633 511.995 39.24 516.908 39.24C520.722 39.24 524.572 39.68 528.458 40.56C532.418 41.3667 535.828 42.6133 538.688 44.3C540.375 45.18 541.585 46.39 542.318 47.93C543.052 49.47 543.345 51.0833 543.198 52.77C543.052 54.3833 542.465 55.8133 541.438 57.06C540.485 58.3067 539.165 59.15 537.478 59.59C535.865 59.9567 533.922 59.6633 531.648 58.71C529.522 57.7567 527.102 57.06 524.388 56.62C521.748 56.1067 519.182 55.85 516.688 55.85C513.975 55.85 511.665 56.18 509.758 56.84C507.852 57.4267 506.385 58.3067 505.358 59.48C504.405 60.6533 503.928 62.01 503.928 63.55C503.928 65.09 504.552 66.41 505.798 67.51C507.118 68.5367 509.502 69.4167 512.948 70.15L525.708 72.9C532.822 74.44 538.138 76.97 541.658 80.49C545.178 84.01 546.938 88.5933 546.938 94.24C546.938 98.0533 546.168 101.5 544.628 104.58C543.088 107.66 540.888 110.3 538.028 112.5C535.168 114.627 531.722 116.277 527.688 117.45C523.655 118.623 519.108 119.21 514.048 119.21ZM564.139 118C560.692 118 558.052 117.12 556.219 115.36C554.459 113.527 553.579 110.923 553.579 107.55V50.9C553.579 47.5267 554.459 44.96 556.219 43.2C558.052 41.3667 560.692 40.45 564.139 40.45H601.429C604.069 40.45 606.049 41.11 607.369 42.43C608.689 43.75 609.349 45.6567 609.349 48.15C609.349 50.7167 608.689 52.6967 607.369 54.09C606.049 55.41 604.069 56.07 601.429 56.07H572.939V70.81H599.009C601.575 70.81 603.519 71.47 604.839 72.79C606.232 74.11 606.929 76.0533 606.929 78.62C606.929 81.1867 606.232 83.13 604.839 84.45C603.519 85.77 601.575 86.43 599.009 86.43H572.939V102.38H601.429C604.069 102.38 606.049 103.077 607.369 104.47C608.689 105.79 609.349 107.697 609.349 110.19C609.349 112.757 608.689 114.7 607.369 116.02C606.049 117.34 604.069 118 601.429 118H564.139Z" fill="#EAEAEA"/>
<rect x="25" y="65.5" width="65" height="16" rx="8" fill="#6A5ACD"/>
<rect x="25" y="31" width="17" height="50" rx="8.5" fill="#6A5ACD"/>
<path d="M25 108C25 103.582 28.5817 100 33 100H82C86.4183 100 90 103.582 90 108V108C90 112.418 86.4183 116 82 116H33C28.5817 116 25 112.418 25 108V108Z" fill="#6A5ACD"/>
<path d="M25 39C25 34.5817 28.5817 31 33 31H82C86.4183 31 90 34.5817 90 39V39C90 43.4183 86.4183 47 82 47H33C28.5817 47 25 43.4183 25 39V39Z" fill="#6A5ACD"/>
</g>
<defs>
<clipPath id="clip0_19_2">
<rect width="634" height="155" fill="white"/>
</clipPath>
</defs>
</svg>
