<svg width="271" height="231" viewBox="0 0 271 231" fill="none" xmlns="http://www.w3.org/2000/svg">
<path d="M28.1557 108.798L28.1531 92.5301C28.1525 88.913 28.9481 85.3401 30.4834 82.0651L32.7519 77.2262C48.8499 42.8869 96.0761 38.8324 117.792 69.9252L159.638 129.841C175.523 152.586 207.044 157.745 229.352 141.251L251.181 125.111" stroke="white" stroke-width="9.85806"/>
<path d="M28.1558 106.079V106.079C33.9291 155.455 98.2156 166.889 126.511 126.014L164.119 71.6846C180.962 47.3526 215.924 44.6777 236.273 66.1641L241.053 71.2106C244.139 74.4699 246.475 78.3658 247.894 82.6245L251.179 92.4787" stroke="white" stroke-width="9.85806"/>
<path d="M256.633 95.1982L180.474 95.1982" stroke="white" stroke-width="9.85806"/>
<path d="M125.915 71.6904L141.741 94.5451L135.015 104.149L116.836 78.0517L125.915 71.6904Z" fill="#0A0A0A"/>
</svg>
