<svg width="271" height="231" viewBox="0 0 271 231" fill="none" xmlns="http://www.w3.org/2000/svg">
<path d="M28.1557 108.798L28.1532 92.8534C28.1525 89.0234 28.995 85.2402 30.6207 81.7723V81.7723C47.6664 45.4116 97.6727 41.1184 120.667 74.0416L156.632 125.538C174.164 150.64 208.952 156.334 233.572 138.13L251.181 125.111" stroke="#0A0A0A" stroke-width="10.8798"/>
<path d="M28.1558 106.078V106.078C33.9291 155.454 98.2155 166.888 126.511 126.013L164.119 71.6836C180.962 47.3517 215.924 44.6767 236.273 66.1631L241.053 71.2096C244.139 74.4689 246.475 78.3648 247.894 82.6235L251.179 92.4777" stroke="#0A0A0A" stroke-width="10.8798"/>
<path d="M256.632 95.1982L180.473 95.1982" stroke="#0A0A0A" stroke-width="10.8798"/>
<path d="M126.15 72L141.977 94.8547L135.251 104.459L117.071 78.3613L126.15 72Z" fill="#FFFCFC"/>
</svg>
